Patient4_TMGait_0pt4_01_right_37_GRF.mot
version=1
nRows=52
nColumns=19
inDegrees=no
endheader
time	F1x	F1y	F1z	M1x	M1y	M1z	F2x	F2y	F2z	M2x	M2y	M2z	EC1x	EC1y	EC1z	EC2x	EC2y	EC2z
48.24	-0.54451	778.4456	70.4264	-275.7637	-70.7292	813.0615	16.3111	13.5701	-3.2112	2.0797	-7.2601	3.4553	-0.0592	0.0182	-0.0073	-0.0462	0.0165	0.9585
48.2534	0.22833	770.3473	68.9955	-272.3317	-68.4742	802.7476	10.8925	9.747	-2.16	1.6266	-4.8418	3.0803	-0.0592	0.0182	-0.0073	-0.0462	0.0165	0.9585
48.2669	1.2543	760.7665	67.4939	-268.362	-66.0182	790.6107	6.3134	6.5108	-1.2987	1.2532	-2.7708	2.7512	-0.0592	0.0182	-0.0073	-0.0462	0.0165	0.9585
48.2803	2.5199	750.5588	66.0386	-264.1975	-63.5038	777.5738	2.8311	4.0666	-0.65107	0.98157	-1.1846	2.5146	-0.0592	0.0182	-0.0073	-0.0462	0.0165	0.9585
48.2937	3.9955	740.7341	64.7474	-260.2237	-61.0709	764.6936	0.42435	2.4011	-0.21249	0.80621	-0.075021	2.376	-0.0592	0.0182	-0.0073	-0.0462	0.0165	0.9585
48.3071	5.6673	732.2726	63.6445	-256.8109	-58.7604	752.9636	-1.0647	1.396	0.052746	0.71038	0.62246	2.3209	-0.0592	0.0182	-0.0073	-0.0462	0.0165	0.9585
48.3206	7.5472	726.0119	62.7418	-254.2684	-56.5841	743.2099	-1.87	0.89231	0.17823	0.6698	1.0154	2.3298	-0.0592	0.0182	-0.0073	-0.0462	0.0165	0.9585
48.334	9.6857	722.5416	62.0022	-252.8075	-54.4894	735.9949	-2.2091	0.69434	0.20921	0.64993	1.1979	2.3253	-0.0592	0.0182	-0.0073	-0.0462	0.0165	0.9585
48.3474	12.124	722.1338	61.4155	-252.5175	-52.4525	731.5789	-2.2857	0.63177	0.17607	0.61812	1.2635	2.2464	-0.0592	0.0182	-0.0073	-0.0462	0.0165	0.9585
48.3609	14.8943	724.7381	60.9531	-253.3665	-50.437	729.9057	-2.231	0.53566	0.10195	0.53663	1.2793	1.995	-0.0592	0.0182	-0.0073	-0.0462	0.0165	0.9585
48.3743	18.0047	730.018	60.6231	-255.2086	-48.4527	730.6495	-2.1413	0.24645	0.0058201	0.3653	1.2881	1.4642	-0.0592	0.0182	-0.0073	-0.0462	0.0165	0.9585
48.3877	21.4444	737.3828	60.4232	-257.8045	-46.5106	733.2546	-2.0689	-0.37457	-0.093673	0.064304	1.3049	0.55069	-0.0592	0.0182	-0.0073	-0.0462	0.0165	0.9585
48.4011	25.1656	746.044	60.3765	-260.8437	-44.6572	737.0004	-1.9989	-1.4307	-0.18128	-0.39804	1.3145	-0.83707	-0.0592	0.0182	-0.0073	-0.0462	0.0165	0.9585
48.4146	29.0998	755.0867	60.4959	-263.9725	-42.935	741.0619	-1.9055	-2.9643	-0.23739	-1.035	1.2844	-2.7282	-0.0592	0.0182	-0.0073	-0.0462	0.0165	0.9585
48.428	33.1567	763.5606	60.7966	-266.8297	-41.3938	744.599	-1.7125	-4.9372	-0.22637	-1.8292	1.1475	-5.0918	-0.0592	0.0182	-0.0073	-0.0462	0.0165	0.9585
48.4414	37.2094	770.5721	61.2691	-269.0821	-40.0704	746.8489	-1.3114	-7.1315	-0.1077	-2.6973	0.81388	-7.6944	-0.0592	0.0182	-0.0073	-0.0462	0.0165	0.9585
48.4549	41.1336	775.3846	61.8737	-270.4614	-38.9741	747.2099	-0.55758	-9.1148	0.17003	-3.4693	0.16941	-10.0583	-0.0592	0.0182	-0.0073	-0.0462	0.0165	0.9585
48.4683	44.8062	777.4229	62.5299	-270.7617	-38.0761	745.2431	0.69891	-10.1712	0.65362	-3.8585	-0.89956	-11.3614	-0.0592	0.0182	-0.0073	-0.0462	0.0165	0.9585
48.4817	48.1225	776.1849	63.1586	-269.8043	-37.3414	740.5671	2.5897	-9.1914	1.3775	-3.4235	-2.4855	-10.309	-0.0592	0.0182	-0.0073	-0.0462	0.0165	0.9585
48.4951	50.9861	771.2649	63.6981	-267.4382	-36.744	732.873	5.2034	-4.6683	2.3408	-1.5641	-4.6173	-5.1436	-0.0592	0.0182	-0.0073	-0.0462	0.0165	0.9585
48.5086	53.3169	762.4077	64.0832	-263.5656	-36.2501	721.97	8.469	5.268	3.4886	2.4601	-7.1982	6.3264	-0.0592	0.0182	-0.0073	-0.0462	0.0165	0.9585
48.522	55.0407	749.4849	64.2191	-258.1499	-35.803	707.7814	12.1008	22.6677	4.6725	9.4543	-9.932	26.495	-0.0592	0.0182	-0.0073	-0.0462	0.0165	0.9585
48.5354	56.0629	732.421	63.961	-251.1976	-35.3075	690.2767	15.454	49.4004	5.6084	20.14	-12.2249	57.549	-0.0592	0.0182	-0.0073	-0.0462	0.0165	0.9585
48.5489	56.3004	711.1031	63.1005	-242.7253	-34.6085	669.3544	17.3847	86.5664	5.8843	34.9257	-13.1516	100.7959	-0.0592	0.0182	-0.0073	-0.0462	0.0165	0.9585
48.5623	55.6807	685.3179	61.4006	-232.7337	-33.5146	644.798	16.3936	133.7204	5.093	53.601	-11.6482	155.7371	-0.0592	0.0182	-0.0073	-0.0462	0.0165	0.9585
48.5757	54.2063	654.7268	58.6729	-221.1939	-31.8461	616.2235	11.2225	188.179	2.7659	75.0621	-6.7348	219.2729	-0.0592	0.0182	-0.0073	-0.0462	0.0165	0.9585
48.5891	51.9562	619.0047	54.8547	-208.0821	-29.5025	583.1975	2.5462	245.8931	-1.2469	97.6656	1.464	286.6609	-0.0592	0.0182	-0.0073	-0.0462	0.0165	0.9585
48.6026	49.0532	578.0087	50.0659	-193.4192	-26.5298	545.4163	-7.9452	302.9252	-6.6482	119.8524	11.9052	353.1561	-0.0592	0.0182	-0.0073	-0.0462	0.0165	0.9585
48.616	45.5575	531.7039	44.6142	-177.2287	-23.1621	502.6846	-18.5202	357.1334	-12.847	140.7929	23.2377	416.0233	-0.0592	0.0182	-0.0073	-0.0462	0.0165	0.9585
48.6294	41.4241	480.2851	38.8781	-159.5705	-19.7317	455.0771	-27.9388	408.0129	-19.1702	160.3195	34.2148	474.546	-0.0592	0.0182	-0.0073	-0.0462	0.0165	0.9585
48.6429	36.5997	424.4864	33.2048	-140.6575	-16.5517	403.2032	-35.4752	455.666	-25.139	178.5151	44.014	528.8011	-0.0592	0.0182	-0.0073	-0.0462	0.0165	0.9585
48.6563	31.0122	365.7265	27.8405	-120.917	-13.858	348.3594	-40.7975	500.3306	-30.5399	195.503	52.2742	579.0398	-0.0592	0.0182	-0.0073	-0.0462	0.0165	0.9585
48.6697	24.6714	306.01	22.9489	-100.9702	-11.7956	292.4121	-43.9153	542.3023	-35.4036	211.408	59.0384	625.6035	-0.0592	0.0182	-0.0073	-0.0462	0.0165	0.9585
48.6831	17.7535	247.757	18.6378	-81.5827	-10.4113	237.6335	-45.0873	581.9078	-39.9285	226.3523	64.6331	668.9022	-0.0592	0.0182	-0.0073	-0.0462	0.0165	0.9585
48.6966	10.6539	193.4743	14.954	-63.559	-9.6219	186.4034	-44.7821	619.3595	-44.3024	240.3969	69.4466	709.278	-0.0592	0.0182	-0.0073	-0.0462	0.0165	0.9585
48.71	3.9986	145.2214	11.903	-47.5697	-9.2312	140.6735	-43.5209	654.4966	-48.6714	253.4536	73.8344	746.6622	-0.0592	0.0182	-0.0073	-0.0462	0.0165	0.9585
48.7234	-1.5724	104.2473	9.4078	-34.021	-8.9559	101.6495	-41.8352	686.7716	-53.0218	265.2946	77.9817	780.5588	-0.0592	0.0182	-0.0073	-0.0462	0.0165	0.9585
48.7369	-5.5901	70.9039	7.3406	-23.0273	-8.519	69.7007	-40.1347	715.4354	-57.2316	275.6312	81.9103	810.2347	-0.0592	0.0182	-0.0073	-0.0462	0.0165	0.9585
48.7503	-7.8443	44.8887	5.5468	-14.486	-7.7066	44.6113	-38.6081	739.768	-61.0677	284.2032	85.4416	834.9489	-0.0592	0.0182	-0.0073	-0.0462	0.0165	0.9585
48.7637	-8.368	25.5165	3.9386	-8.1615	-6.4526	25.8021	-37.3285	759.1627	-64.3472	290.8001	88.3988	854.0766	-0.0592	0.0182	-0.0073	-0.0462	0.0165	0.9585
48.7771	-7.4928	11.9609	2.5223	-3.7672	-4.8829	12.5331	-36.2787	773.1149	-66.9463	295.2611	90.641	867.0819	-0.0592	0.0182	-0.0073	-0.0462	0.0165	0.9585
48.7906	-5.9144	3.3596	1.3822	-1.0009	-3.3145	4.0374	-35.4175	781.3692	-68.8168	297.5205	92.0983	873.7259	-0.0592	0.0182	-0.0073	-0.0462	0.0165	0.9585
48.804	-4.1633	-1.3805	0.57168	0.50518	-1.985	-0.71009	-34.683	784.0956	-69.8942	297.682	92.6891	874.2294	-0.0592	0.0182	-0.0073	-0.0462	0.0165	0.9585
48.8174	-2.5812	-3.3562	0.046439	1.1173	-0.97327	-2.7378	-34.0207	782.0216	-70.1686	296.0625	92.3938	869.4126	-0.0592	0.0182	-0.0073	-0.0462	0.0165	0.9585
48.8309	-1.3006	-3.567	-0.24205	1.1631	-0.28297	-3.0273	-33.3619	776.3826	-69.6769	293.1645	91.2435	860.6398	-0.0592	0.0182	-0.0073	-0.0462	0.0165	0.9585
48.8443	-0.36722	-2.7934	-0.371	0.89568	0.14589	-2.3335	-32.6116	768.6812	-68.5551	289.5817	89.3644	849.5429	-0.0592	0.0182	-0.0073	-0.0462	0.0165	0.9585
48.8577	0.24846	-1.5888	-0.39472	0.49362	0.37794	-1.1915	-31.7227	760.4856	-66.97	285.9257	86.9314	837.8174	-0.0592	0.0182	-0.0073	-0.0462	0.0165	0.9585
48.8711	0.61866	-0.31763	-0.35702	0.073037	0.47915	0.032992	-30.6825	753.2507	-65.1025	282.7585	84.145	827.0316	-0.0592	0.0182	-0.0073	-0.0462	0.0165	0.9585
48.8846	0.79135	0.82025	-0.2932	-0.30325	0.49888	1.1465	-29.4994	748.1386	-63.1215	280.5219	81.1965	818.4285	-0.0592	0.0182	-0.0073	-0.0462	0.0165	0.9585
48.898	0.8541	1.7254	-0.21852	-0.60652	0.47401	2.0296	-28.1905	745.8637	-61.1845	279.4774	78.2644	812.7555	-0.0592	0.0182	-0.0073	-0.0462	0.0165	0.9585
48.9114	0.8415	2.3959	-0.15249	-0.83356	0.42792	2.696	-26.7564	746.6427	-59.4231	279.6904	75.4922	810.2196	-0.0592	0.0182	-0.0073	-0.0462	0.0165	0.9585
48.9249	0.79171	2.836	-0.10037	-0.98337	0.372	3.1374	-25.1744	750.1963	-57.9375	281.0346	72.9734	810.4999	-0.0592	0.0182	-0.0073	-0.0462	0.0165	0.9585
